<svg width="154" height="124" viewBox="0 0 154 124" fill="none" xmlns="http://www.w3.org/2000/svg">
<path fill-rule="evenodd" clip-rule="evenodd" d="M21.0393 84.2832C10.4792 72.7542 2.18047 58.6373 0.32379 44.8412C-2.65149 22.7324 15.1284 7.23245 43.3383 12.5346C59.9543 17.6602 75.1284 25.1108 77.6284 40.7324C77.6284 28 98.7939 15.6898 111.033 12.4631C123.628 10.2325 138.128 8.23245 149.146 25.1108C164.416 57.1439 132 107.953 101.818 114.081C95 115.466 93.5639 110.224 88.6285 103.232C68.1285 73.7324 62.1285 84.7324 67.1285 92.7324C69.9213 97.1609 72.1769 101.016 73.9582 104.356C78.1646 112.243 79.7268 117.258 79.4744 120.167C79.4672 120.25 79.4586 120.331 79.4485 120.41C79.3217 121.407 78.9666 122.137 78.4209 122.637C78.401 122.655 78.3808 122.673 78.3604 122.691C71 126.5 58.1196 115.076 48.5896 107.953C47.5433 107.171 46.4953 106.387 45.4435 105.611C36.4934 99.0052 28.0969 91.9899 21.0393 84.2832Z" fill="#1C9170"/>
<path d="M69 7.43706L77.729 15.5L86 7" stroke="#115642" stroke-width="13.3571" stroke-linecap="round" stroke-linejoin="round"/>
<mask id="mask0_81_825" style="mask-type:alpha" maskUnits="userSpaceOnUse" x="0" y="10" width="154" height="114">
<path fill-rule="evenodd" clip-rule="evenodd" d="M21.1773 84.0418C10.6172 72.5128 2.31853 58.3959 0.461852 44.5998C-2.51343 22.491 15.2664 6.991 43.4763 12.2931C60.0923 17.4188 75.2664 24.8694 77.7664 40.491C77.7664 27.7585 98.9319 15.4483 111.172 12.2217C123.767 9.991 138.267 7.991 149.285 24.8694C164.555 56.9025 132.138 107.711 101.957 113.84C95.1381 115.224 93.7019 109.983 88.7665 102.991C68.2665 73.491 62.2665 84.491 67.2665 92.491C70.0593 96.9195 72.3149 100.775 74.0962 104.115C78.3026 112.002 79.8648 117.017 79.6124 119.926C79.6052 120.009 79.5966 120.09 79.5865 120.169C79.4597 121.166 79.1046 121.896 78.5589 122.396C78.539 122.414 78.5188 122.432 78.4984 122.45C71.1381 126.259 58.2576 114.835 48.7276 107.711C47.6813 106.929 46.6333 106.146 45.5815 105.369C36.6314 98.7638 28.2349 91.7485 21.1773 84.0418Z" fill="#24BA90"/>
</mask>
<g mask="url(#mask0_81_825)">
<path d="M107.641 111.184C102.663 102.363 99.0522 92.6949 97.5216 82.6629C96.542 76.2392 96.4745 69.7008 97.3904 63.2952C104.612 60.1557 112.302 58.0246 119.969 59.2931C127.845 60.5953 138.71 67.409 140.663 75.8485C142.691 84.6143 133.067 96.0317 127.127 101.351C121.694 106.219 115.366 109.925 108.746 113.044C108.378 112.424 107.996 111.812 107.641 111.184Z" fill="#24BA90"/>
<path d="M72.7502 92.3742C71.5805 87.8712 70.7881 83.2833 70.3145 78.6623C77.1601 73.9723 84.3111 69.7265 91.7144 65.9777C93.5126 65.0663 95.354 64.1848 97.2252 63.367C96.9239 65.475 96.7301 67.5997 96.6456 69.7312C96.2479 79.8374 98.2553 89.9429 101.893 99.3494C103.737 104.117 106 108.716 108.613 113.108C106.054 114.31 103.455 115.432 100.843 116.488C96.146 118.386 91.3315 120.116 86.3905 121.169C80.0339 112.561 75.439 102.724 72.7502 92.3742Z" fill="#115642"/>
<path d="M52.3553 97.7046C53.9835 91.245 59.4329 86.544 64.7901 82.5834C66.5628 81.2729 68.3633 80.0016 70.1802 78.7543C71.2915 89.4686 74.2409 99.9999 79.1111 109.62C81.1675 113.682 83.5776 117.545 86.2743 121.194C84.2364 121.623 82.1787 121.949 80.0968 122.102C72.9231 122.633 65.377 121.143 59.6939 116.733C54.0108 112.323 50.5968 104.681 52.3553 97.7046Z" fill="#24BA90"/>
<path d="M124.884 46.4447C119.112 47.419 114.428 51.5018 110.077 55.4174C108.161 57.1422 106.15 59.0181 105.518 61.5183C104.467 65.6744 107.575 69.6683 110.706 72.5954C114.885 76.4999 119.648 79.9957 125.156 81.5315C130.734 83.0852 136.587 82.2287 141.268 78.8011C143.107 86.7939 157.047 75.4514 152.687 71.6515C151.526 70.6397 149.737 70.4223 148.367 71.1257C162.22 59.8136 134.743 44.7824 124.884 46.4447Z" fill="#F5CBAA"/>
<path d="M125.715 63.6288C126.284 64.7556 130.096 61.8022 130.582 61.3886C130.373 61.6646 128.272 64.7185 127.656 64.09C129.16 65.6206 131.07 66.6331 133.096 66.9714C130.283 67.8524 127.125 66.4233 125.715 63.6288Z" fill="#115642"/>
<path d="M114.044 57.0334C114.585 58.0396 118.366 55.7322 118.847 55.4045C118.639 55.6292 116.536 58.1295 115.94 57.5505C117.391 58.9613 119.249 59.9508 121.231 60.3674C118.459 60.9519 115.385 59.527 114.044 57.0334Z" fill="#115642"/>
<path d="M42.5621 81.7221C44.8334 83.095 47.4938 83.9743 49.2554 85.9263C50.9559 87.8111 51.5506 90.5368 50.9643 92.9803C49.9749 97.1061 45.7016 99.5058 42.7149 102.22C41.8128 103.04 31.3979 111.256 31.3454 111.159C25.0255 99.3427 21.4034 86.1675 20.8128 72.8569C20.618 68.4567 20.6543 63.7337 18.0851 60.1088C15.776 56.8516 11.7871 55.1318 9.0246 52.2294C4.3987 47.3704 3.97093 39.5548 7.08481 33.6628C10.1987 27.7707 16.3091 23.7443 22.8506 21.9226C26.9127 20.7908 37.5852 18.4811 41.2711 21.2956C44.8763 24.0484 44.155 30.9251 45.1848 36.4009C46.0688 41.1047 49.5802 45.7845 54.4492 47.0877C55.2723 47.308 56.2858 47.5963 56.4503 48.411C56.647 49.3806 55.4872 50.0056 54.741 50.6762C53.2297 52.0343 53.2025 54.3344 53.5066 56.3163C53.8108 58.2982 54.3216 60.3945 53.5324 62.2438C52.3518 65.0086 48.8864 65.9618 45.8565 66.468C43.2001 66.9108 40.51 67.3421 37.823 67.5613C36.3727 67.6805 35.9763 67.3373 35.5254 68.5579C35.2248 69.3712 35.5726 70.8237 35.7176 71.6544C36.2803 74.8859 37.9284 77.719 40.2891 80.0196C43.0039 82.6664 45.676 82.4937 49.3929 82.8412C52.3501 83.117 55.5892 83.524 57.6038 85.6506C59.6465 87.8063 59.7613 91.2361 58.5164 93.9063C57.2707 96.5773 54.9043 98.5977 52.3976 100.224C48.8298 102.537 44.8375 104.225 40.6666 105.184C38.0407 105.787 35.0178 106.024 32.889 104.41" fill="#F5CBAA"/>
<path d="M24.3334 87.1983C24.9155 86.7737 25.5402 86.3896 26.2124 86.0585C27.8478 85.2537 36.0252 82.7392 36.6582 84.6128C37.3542 86.674 38.0548 88.7818 37.7653 91.1124C37.4759 93.443 36.017 96.0775 33.3392 97.7698C34.8679 97.6487 36.3966 97.5275 37.9254 97.4064C36.1117 99.0678 34.1345 101.338 35.244 102.741C35.8518 103.51 37.2657 103.6 38.564 103.257C39.1631 103.099 39.8471 102.846 40.3578 102.492C40.9228 102.1 41.2057 101.506 41.8967 101.215C43.0043 100.749 45.4807 101.06 46.5996 100.985C48.6564 100.847 50.7121 100.711 52.769 100.573C55.5625 100.387 58.3873 100.201 60.9592 100.549C63.6341 100.912 64.8712 102.051 66.8263 103.138C68.6888 104.173 70.9864 104.837 72.8507 105.906C74.2742 106.722 84.7834 100.427 86.6068 100.773C90.4046 101.493 86.0153 106.849 90.0686 104.789C97.0899 101.22 103.596 96.7698 109.136 91.7476C106.857 104.941 93.6658 122.908 74.037 124.58C65.8011 125.282 58.6029 123.244 52.0942 120.767C45.5856 118.29 39.4131 115.328 32.0295 114.027C27.9003 113.3 23.3102 113.061 20.177 111.165C17.5749 109.998 14.8538 106.84 14.8216 103.665C14.7725 98.6885 18.5015 91.4535 24.3334 87.1983Z" fill="#38E0B1"/>
<path d="M45.9778 45.8855C45.4533 47.8172 43.7352 49.3905 41.7257 49.7828C40.1344 50.0927 37.4614 49.6056 36.6945 48.1066C37.1034 48.906 40.5931 48.0604 41.2274 47.9077C42.9354 47.4948 44.4993 46.8485 45.9778 45.8855Z" fill="#115642"/>
<path d="M47.3468 13.6955C48.3829 14.1844 49.3588 14.7854 50.2525 15.52C52.4252 17.3079 60.4177 27.859 57.1023 30.8835C53.4547 34.21 49.7203 37.5938 45.1735 39.6129C40.6268 41.632 35.043 42.0827 30.7729 39.5551C31.6033 41.9001 32.4338 44.245 33.2642 46.59C29.3922 45.4278 24.2977 44.6511 22.0637 47.9446C20.8399 49.749 21.2247 52.1329 22.3863 53.8683C22.9221 54.6693 23.6709 55.5068 24.545 55.9553C25.513 56.4511 26.7543 56.2747 27.579 57.0825C28.8988 58.3785 29.2792 62.7184 29.8613 64.4493C30.9306 67.6311 31.9977 70.8122 33.0663 73.9948C34.5172 78.3171 35.9799 82.6905 36.3266 87.2249C36.6874 91.941 35.0048 95.1598 33.7053 99.4839C32.4669 103.604 32.1064 108.031 30.8045 112.189C29.8103 115.364 45.9093 125.654 45.9676 128.974C46.0883 135.89 34.1787 134.502 39.688 138.864C49.2316 146.419 60.2505 152.199 71.9779 155.805C45.9879 166.198 6.63337 164.026 -4.25065 134.041C-8.81797 121.46 -7.76631 107.635 -5.60956 94.4565C-3.45358 81.2791 -0.241137 68.1268 -0.664894 54.788C-0.902322 47.3286 -2.25028 39.6451 0.126502 32.5501C1.32657 27.0922 6.26495 19.3175 12.2909 15.877C21.7382 10.4854 36.9639 8.79828 47.3468 13.6955Z" fill="#28CC9E"/>
</g>
<circle cx="84" cy="58" r="4" fill="white"/>
<circle cx="99" cy="46" r="6" fill="white"/>
<circle cx="118" cy="30" r="10" fill="white"/>
</svg>
